<?xml version="1.0" encoding="utf-8"?>
<!-- Generator: Adobe Illustrator 25.4.0, SVG Export Plug-In . SVG Version: 6.00 Build 0)  -->
<svg version="1.1" id="Layer_1" xmlns="http://www.w3.org/2000/svg" xmlns:xlink="http://www.w3.org/1999/xlink" x="0px" y="0px"
	 viewBox="0 0 120 33" style="enable-background:new 0 0 120 33;" xml:space="preserve">
<style type="text/css">
	.st0{fill:#F1F1F2;}
	.st1{fill:url(#SVGID_1_);}
</style>
<g>
	<path class="st0" d="M47.4,8.4h2v10.2c0,0.9-0.1,1.7-0.4,2.4c-0.3,0.7-0.7,1.4-1.2,1.9s-1.1,1-1.8,1.2c-0.7,0.3-1.4,0.4-2.2,0.4
		c-1.2,0-2.2-0.3-3-0.8c-0.9-0.5-1.5-1.3-2-2.2c-0.5-0.9-0.7-1.9-0.7-3c0-0.7,0.1-1.5,0.4-2.1s0.7-1.3,1.2-1.8s1.1-0.9,1.7-1.2
		c0.6-0.3,1.3-0.4,2-0.4c1.2,0,2.2,0.3,3.1,0.8v2.1c-0.3-0.2-0.5-0.3-0.9-0.5s-0.6-0.3-1-0.4c-0.3-0.1-0.6-0.1-0.9-0.1
		c-0.5,0-1,0.1-1.5,0.3c-0.4,0.2-0.8,0.4-1.1,0.8c-0.3,0.3-0.6,0.7-0.7,1.2c-0.2,0.5-0.3,1-0.3,1.5c0,0.7,0.2,1.4,0.5,2
		s0.7,1,1.3,1.4s1.2,0.5,1.9,0.5s1.3-0.2,1.8-0.5s1-0.8,1.3-1.5s0.5-1.5,0.5-2.5C47.4,18.1,47.4,8.4,47.4,8.4z M62,16.7l-7.4,4.1
		l-0.8-1.6l5.4-3c-0.4-0.4-0.8-0.7-1.1-0.8c-0.3-0.2-0.8-0.2-1.4-0.2c-1,0-1.9,0.4-2.6,1.1c-0.7,0.7-1,1.6-1,2.7s0.3,2,1,2.7
		s1.5,1.1,2.6,1.1s2-0.3,2.5-0.9c0.6-0.6,1-1.4,1.2-2.5l2,0.3c-0.1,1-0.4,1.8-0.9,2.6c-0.5,0.8-1.2,1.4-2,1.8s-1.8,0.7-2.8,0.7
		c-0.8,0-1.5-0.1-2.2-0.4s-1.3-0.7-1.8-1.2s-0.9-1.1-1.2-1.8c-0.3-0.7-0.4-1.5-0.4-2.3s0.1-1.6,0.4-2.3c0.3-0.7,0.7-1.3,1.3-1.8
		c0.5-0.5,1.2-0.9,1.8-1.2c0.7-0.3,1.4-0.4,2.2-0.4c1.2,0,2.3,0.3,3.2,0.9C60.8,14.7,61.5,15.6,62,16.7z M66,24.4h-2v-12
		c0-0.8,0.2-1.5,0.5-2.1s0.8-1.1,1.4-1.4c0.6-0.3,1.3-0.5,2-0.5h1.7v1.9h-1.4c-1.4,0-2.1,0.7-2.1,2v1.1h3.3v1.9H66V24.4z M78,13.4h2
		v6.4c0,0.9-0.2,1.8-0.6,2.5s-1,1.3-1.7,1.7c-0.7,0.4-1.5,0.6-2.4,0.6s-1.7-0.2-2.4-0.6c-0.7-0.4-1.3-1-1.7-1.7
		c-0.4-0.7-0.6-1.6-0.6-2.5v-6.4h2v6.4c0,0.6,0.1,1,0.4,1.5c0.2,0.4,0.6,0.8,1,1s0.9,0.4,1.3,0.4c0.5,0,0.9-0.1,1.3-0.4
		c0.4-0.2,0.7-0.6,1-1c0.2-0.4,0.4-0.9,0.4-1.5L78,13.4L78,13.4z M87.6,13.4v1.9h-3.9v5.8c0,0.5,0.1,0.9,0.4,1.1
		c0.2,0.2,0.6,0.3,1.1,0.3h2.4v1.9h-2.7c-1,0-1.8-0.3-2.4-1c-0.6-0.6-0.9-1.5-0.9-2.6V10.7h2v2.7H87.6z M96.3,13.4h2v6.4
		c0,0.9-0.2,1.8-0.6,2.5s-1,1.3-1.7,1.7c-0.7,0.4-1.5,0.6-2.4,0.6s-1.7-0.2-2.4-0.6c-0.7-0.4-1.3-1-1.7-1.7
		c-0.4-0.7-0.6-1.6-0.6-2.5v-6.4h2v6.4c0,0.6,0.1,1,0.4,1.5s0.6,0.8,1,1s0.9,0.4,1.3,0.4c0.5,0,0.9-0.1,1.3-0.4c0.4-0.2,0.7-0.6,1-1
		c0.2-0.4,0.4-0.9,0.4-1.5L96.3,13.4L96.3,13.4z M99.8,23.2c0-0.4,0.1-0.7,0.4-1s0.6-0.4,1-0.4s0.7,0.1,1,0.4s0.4,0.6,0.4,1
		s-0.1,0.7-0.4,1s-0.6,0.4-1,0.4s-0.7-0.1-1-0.4C99.9,23.9,99.8,23.6,99.8,23.2z M104.5,11c0-0.3,0.1-0.5,0.3-0.7
		c0.2-0.2,0.4-0.3,0.7-0.3s0.5,0.1,0.7,0.3s0.3,0.4,0.3,0.7s-0.1,0.5-0.3,0.7c-0.2,0.2-0.4,0.3-0.7,0.3s-0.5-0.1-0.7-0.3
		C104.6,11.5,104.5,11.2,104.5,11z M106.6,24.4h-2v-11h2V24.4z M108.6,18.9c0-0.8,0.1-1.6,0.4-2.3c0.3-0.7,0.7-1.3,1.3-1.8
		c0.5-0.5,1.2-0.9,1.8-1.2c0.7-0.3,1.4-0.4,2.2-0.4c0.8,0,1.5,0.1,2.2,0.4c0.7,0.3,1.3,0.7,1.8,1.2s0.9,1.1,1.2,1.8
		c0.3,0.7,0.5,1.5,0.5,2.3s-0.2,1.6-0.5,2.3c-0.3,0.7-0.7,1.3-1.2,1.8s-1.1,0.9-1.8,1.2c-0.7,0.3-1.4,0.4-2.2,0.4
		c-0.8,0-1.5-0.1-2.2-0.4s-1.3-0.7-1.8-1.2s-0.9-1.1-1.2-1.8C108.8,20.5,108.6,19.8,108.6,18.9z M110.7,18.9c0,1.1,0.3,2,1,2.7
		s1.5,1.1,2.6,1.1c1,0,1.9-0.4,2.6-1.1s1-1.6,1-2.7s-0.3-2-1-2.7c-0.7-0.7-1.5-1.1-2.6-1.1c-1,0-1.9,0.4-2.6,1.1
		C111.1,16.9,110.7,17.8,110.7,18.9z"/>
	<g>
		
			<linearGradient id="SVGID_1_" gradientUnits="userSpaceOnUse" x1="6.7927" y1="27.0574" x2="25.9392" y2="7.9108" gradientTransform="matrix(1 0 0 -1 0 34)">
			<stop  offset="0" style="stop-color:#AF0BD4"/>
			<stop  offset="1" style="stop-color:#14DCFF"/>
		</linearGradient>
		<path class="st1" d="M2.3,15.9L2.3,15.9c0-2.5,2-4.5,4.5-4.5h4.5V2.5l0,0c2.5,0,4.5,2,4.5,4.5v8.9H2.3z M15.7,30.5V23h-4.5v3.1
			C11.2,28.6,13.2,30.5,15.7,30.5z M15.7,21.6v-4.5H6.8c-2.5,0-4.5,2-4.5,4.5H15.7z M17,2.5v7.6h4.5V6.9C21.5,4.5,19.5,2.5,17,2.5z
			 M17,15.9h8.9c2.5,0,4.5-2,4.5-4.5l0,0H17V15.9z M21.5,21.6H26c2.5,0,4.5-2,4.5-4.5H17V26c0,2.5,2,4.5,4.5,4.5V21.6z"/>
	</g>
</g>
</svg>
