<?xml version="1.0" encoding="utf-8"?>
<!-- Generator: Adobe Illustrator 25.4.0, SVG Export Plug-In . SVG Version: 6.00 Build 0)  -->
<svg version="1.1" id="Layer_1" xmlns="http://www.w3.org/2000/svg" xmlns:xlink="http://www.w3.org/1999/xlink" x="0px" y="0px"
	 viewBox="0 0 744 801" style="enable-background:new 0 0 744 801;" xml:space="preserve">
<style type="text/css">
	.st0{opacity:0.3;}
	.st1{fill:none;stroke:url(#SVGID_1_);stroke-miterlimit:10;}
	.st2{fill:none;stroke:url(#SVGID_00000065049931355614144760000005448660281118600618_);stroke-miterlimit:10;}
	.st3{fill:none;stroke:url(#SVGID_00000004528322171101376050000009261754254299295143_);stroke-miterlimit:10;}
	.st4{fill:none;stroke:url(#SVGID_00000031919709244765165630000003109809853248324492_);stroke-miterlimit:10;}
	.st5{fill:none;stroke:url(#SVGID_00000153693971871367476860000016695386624800038286_);stroke-miterlimit:10;}
	.st6{fill:none;stroke:url(#SVGID_00000129927682905796045260000000092433258700270510_);stroke-miterlimit:10;}
	.st7{fill:none;stroke:url(#SVGID_00000100370399010788773780000005855060574709650866_);stroke-miterlimit:10;}
	.st8{fill:none;stroke:url(#SVGID_00000177471032413034962690000000744809900378121358_);stroke-miterlimit:10;}
	.st9{fill:none;stroke:url(#SVGID_00000072991835181370635090000014513502421408249240_);stroke-miterlimit:10;}
	.st10{fill:none;stroke:url(#SVGID_00000039107720114635184830000001626683779621881015_);stroke-miterlimit:10;}
	.st11{fill:none;stroke:url(#SVGID_00000003080318089636037930000009891864282590704552_);stroke-miterlimit:10;}
	.st12{fill:none;stroke:url(#SVGID_00000142884725246665955880000007476923665521312149_);stroke-miterlimit:10;}
	.st13{fill:none;stroke:url(#SVGID_00000062185037500340868700000006097971924387321993_);stroke-miterlimit:10;}
	.st14{fill:none;stroke:url(#SVGID_00000012445826165722835270000008544395611288541106_);stroke-miterlimit:10;}
	.st15{fill:none;stroke:url(#SVGID_00000178190362721756523650000018159824601358083466_);stroke-miterlimit:10;}
	.st16{fill:none;stroke:url(#SVGID_00000001648981776113395370000009280402258209415084_);stroke-miterlimit:10;}
	.st17{fill:none;stroke:url(#SVGID_00000122685949807148401180000004619298396824867725_);stroke-miterlimit:10;}
	.st18{fill:none;stroke:url(#SVGID_00000116946267567543630290000011063708321475673013_);stroke-miterlimit:10;}
	.st19{fill:none;stroke:url(#SVGID_00000154402272197630872890000001970455058547272321_);stroke-miterlimit:10;}
	.st20{fill:none;stroke:url(#SVGID_00000126309599424445522070000005102787052342773676_);stroke-miterlimit:10;}
	.st21{fill:none;stroke:url(#SVGID_00000094603453225108029310000010668698080444389027_);stroke-miterlimit:10;}
	.st22{fill:none;stroke:url(#SVGID_00000063605302287839269810000011559134290931313299_);stroke-miterlimit:10;}
	.st23{fill:none;stroke:url(#SVGID_00000149377432343176633660000006302624631422663827_);stroke-miterlimit:10;}
	.st24{fill:none;stroke:url(#SVGID_00000164480109976895650780000016544050733124942762_);stroke-miterlimit:10;}
	.st25{fill:none;stroke:url(#SVGID_00000158003265275014218080000007009279584419310720_);stroke-miterlimit:10;}
	.st26{fill:none;stroke:url(#SVGID_00000051368736318041460220000008325102540237706149_);stroke-miterlimit:10;}
	.st27{fill:none;stroke:url(#SVGID_00000109733795902958561270000001553024567701577905_);stroke-miterlimit:10;}
	.st28{fill:none;stroke:url(#SVGID_00000005246431408188573260000007229867018462411169_);stroke-miterlimit:10;}
	.st29{fill:none;stroke:url(#SVGID_00000154407079965810420110000004360682684780175773_);stroke-miterlimit:10;}
	.st30{fill:none;stroke:url(#SVGID_00000020396303983082617460000005058445484387326855_);stroke-miterlimit:10;}
	.st31{fill:none;stroke:url(#SVGID_00000037688254779907141190000009525371221135052727_);stroke-miterlimit:10;}
	.st32{fill:none;stroke:url(#SVGID_00000011012293965369797920000002861119781049710002_);stroke-miterlimit:10;}
</style>
<g class="st0">
	
		<linearGradient id="SVGID_1_" gradientUnits="userSpaceOnUse" x1="-627.2298" y1="1791.1498" x2="-167.3131" y2="1791.1498" gradientTransform="matrix(0.7071 -0.7071 0.7071 0.7071 -613.6113 -1146.9326)">
		<stop  offset="0" style="stop-color:#DA2EEF"/>
		<stop  offset="0.5" style="stop-color:#2B6AFF"/>
		<stop  offset="1" style="stop-color:#39D0D8"/>
	</linearGradient>
	<path class="st1" d="M490.5,400.5L542,349c28.4-28.4,28.4-74.6,0-103l-51.5,51.5L439,349l-51.5,51.5L439,452l51.5,51.5
		c28.4,28.4,74.6,28.4,103,0L542,452L490.5,400.5z M526.5,570.5l-43.8-43.8L439,482.9l-51.5,51.5l36.1,36.1
		c14.2,14.2,32.9,21.3,51.5,21.3S512.3,584.7,526.5,570.5z M372,385l51.5-51.5L475,282c28.4-28.4,28.4-74.6,0-103l0,0l-77.3,77.3
		l-77.3,77.3L372,385z M305,452l-51.5,51.5L202,555l0,0c-28.4-28.4-28.4-74.6,0-103l51.5-51.5l-103-103l0,0
		c28.4-28.4,74.6-28.4,103,0L305,349l51.5,51.5L305,452z M423.5,467.5L372,416L269,519c-28.4,28.4-28.4,74.6,0,103L423.5,467.5z
		 M217.5,230.5l43.8,43.8l43.8,43.8l51.5-51.5l-36.1-36.1c-14.2-14.2-32.9-21.3-51.5-21.3S231.7,216.3,217.5,230.5z"/>
	
		<linearGradient id="SVGID_00000000203105931738450940000002840426781004786110_" gradientUnits="userSpaceOnUse" x1="152.6959" y1="678.4505" x2="591.4052" y2="678.4505" gradientTransform="matrix(1 0 0 1 0 -278)">
		<stop  offset="0" style="stop-color:#DA2EEF"/>
		<stop  offset="0.5" style="stop-color:#2B6AFF"/>
		<stop  offset="1" style="stop-color:#39D0D8"/>
	</linearGradient>
	<path style="fill:none;stroke:url(#SVGID_00000000203105931738450940000002840426781004786110_);stroke-miterlimit:10;" d="
		M488.7,293.1c-0.4-0.2-32.8,31.6-33.4,31.6l-17.9,18.8l-15.9,16.7l-33.9,35.5l49.8,53l51.7,49.8c13.8,13.8,32.7,20.6,50.8,20.6
		c18,0,37-6.9,50.8-20.6l-49.8-50.7l-49.8-50.7l49.8-50.7c27.5-28.6,27.1-74.1-1.1-102.3C539.3,243.7,489.1,293.3,488.7,293.1z
		 M443,479.7l-43,37.4l-6.2,7.1l-6.2,7.1l34.9,36.8c13.8,13.8,35.5,20.6,53.6,20.6c10.3,0,24.3-2.2,33.7-6.7
		c8.2-3.4,15.9-8.4,22.5-15.1c0.3-0.3-41.8-43.1-41.6-43.6s-8.7-9.9-8.7-10.4l0,0L443,479.7z M467.4,178.1
		c18.9,16.9,27.1,41.9,23.3,65.8c-2.4,13.8-8.9,30.7-19.6,41.3l-49.8,53.6l-28.7,24.9l-28.6,25l-53.6-49.8l0,0
		c0-2.1,53.1-55.1,55.1-55.1l26-23.4L402,251l32.7-36.5L467.4,178.1L467.4,178.1z M153.4,310c13.8-13.8,32.7-20.6,50.8-20.6
		c18,0,37,6.9,50.8,20.6l51.7,49.8l49.8,53l-49.8,53c-0.5,0-50.9,49.7-51.3,49.6c-0.4-0.1-50.7,49.4-51,49
		c-28.2-28.2-28.6-73.8-1.1-102.3l49.8-50.7C253.1,411.4,153.4,310,153.4,310z M421.3,473.3l-49.8-53.6l-107.2,99.7
		c-29.6,27.5-31.3,73.8-3.7,103.4L421.3,473.3z M223,240.3l20.8,24.6l21.5,25.3c0,2.1,34.2,36.3,36.3,36.3l9.8,8.1l10.8-12.8
		l20.7-24.4l21.6-18.3l-1.9-2.3c2.1,0-28.8-34.2-28.8-36.3c-13.8-13.8-35.5-20.6-53.6-20.6c-9.2,0-22.1,1.8-30.7,5.3
		C241.3,228.4,229.8,233.6,223,240.3z"/>
	
		<linearGradient id="SVGID_00000049221397258913085320000007178551368859743164_" gradientUnits="userSpaceOnUse" x1="155.4991" y1="678.5023" x2="588.3011" y2="678.5023" gradientTransform="matrix(1 0 0 1 0 -278)">
		<stop  offset="0" style="stop-color:#DA2EEF"/>
		<stop  offset="0.5" style="stop-color:#2B6AFF"/>
		<stop  offset="1" style="stop-color:#39D0D8"/>
	</linearGradient>
	<path style="fill:none;stroke:url(#SVGID_00000049221397258913085320000007178551368859743164_);stroke-miterlimit:10;" d="
		M486.8,288.7c-0.9-0.4-32.7,30.3-33.8,30.3l-17.3,19l-15.4,16.9l-32.8,36l48.2,54.5l51.9,48.2c13.3,13.3,32.6,20,50,20
		s36.7-6.7,50-20l-48.2-49.9l-48.2-49.9l48.2-49.9c26.6-28.7,25.8-73.7-2.2-101.6C536.7,241.4,487.7,289,486.8,288.7z M447,476.5
		l-47.4,36.2l-6,7.9l-6,7.9l33.7,37.5c13.3,13.3,38.2,20,55.7,20c9.9,0,27.3-2.2,36.5-6.5c9-3.3,17.4-8.6,24.5-15.7
		c0.7-0.7-39.7-42.4-39.4-43.3c0.4-0.9-8.1-10.5-8.1-11.6l0,0L447,476.5z M459.8,177.3c20.4,16.3,30.1,42.2,26.4,67.5
		c-2.3,13.3-8.6,33.5-18.9,43.8l-48.2,55.7l-31.6,24.1l-31.6,24.1l-55.7-48.2l0,0c0-4.1,53-57.2,57.2-57.2l27.9-22.6l11.2-9
		l31.6-39.1L459.8,177.3L459.8,177.3z M156.2,322.4c13.3-13.3,32.6-20,50-20s36.7,6.7,50,20l51.9,48.2l48.2,54.5l-48.2,54.5
		c-1,0-50.2,48-51.1,47.6s-49.9,47.3-50.6,46.6c-28-28-28.8-73-2.2-101.6l48.2-49.9C252.6,422.3,156.2,322.4,156.2,322.4z
		 M419.1,479.2l-48.2-55.7l-111.3,96.4c-30.7,26.6-34.1,73.1-7.5,103.8L419.1,479.2z M228.6,250.1l20.1,27.6l20.8,28.3
		c0,4.1,34.8,38.9,38.9,38.9l9.5,6l10.5-14.4l20-27.5l24.3-17.7l-1.4-2.3c4.1,0-24-34.8-24-38.9c-13.3-13.3-38.2-20-55.7-20
		c-8.9,0-25.2,1.7-33.5,5.2C250.1,238.6,235.1,243.6,228.6,250.1z"/>
	
		<linearGradient id="SVGID_00000153702828304174319890000017722096798955878026_" gradientUnits="userSpaceOnUse" x1="158.4026" y1="678.5037" x2="585.4963" y2="678.5037" gradientTransform="matrix(1 0 0 1 0 -278)">
		<stop  offset="0" style="stop-color:#DA2EEF"/>
		<stop  offset="0.5" style="stop-color:#2B6AFF"/>
		<stop  offset="1" style="stop-color:#39D0D8"/>
	</linearGradient>
	<path style="fill:none;stroke:url(#SVGID_00000153702828304174319890000017722096798955878026_);stroke-miterlimit:10;" d="
		M485,284.2c-1.3-0.6-32.6,28.9-34.1,28.9l-16.7,19.3l-14.9,17.1l-31.7,36.4l46.5,56l52.1,46.5c12.8,12.8,32.5,19.3,49.3,19.3
		s36.5-6.4,49.3-19.3l-46.5-49.1l-46.5-49.1l46.5-49.1c25.7-28.8,24.4-73.2-3.3-101C534.1,239.1,486.4,284.8,485,284.2z M451,473.3
		l-51.7,34.9l-5.8,8.6l-5.8,8.6l32.6,38.2c12.8,12.8,40.9,19.3,57.7,19.3c9.6,0,30.4-2.1,39.2-6.2c9.8-3.2,18.9-8.7,26.4-16.3
		c1-1-37.7-41.8-37.1-43.1s-7.5-11.2-7.5-12.7l0,0L451,473.3z M452.2,176.4c22,15.8,33.1,42.5,29.5,69.1
		c-2.3,12.9-8.3,36.4-18.3,46.3l-46.5,57.7l-34.5,23.3l-34.5,23.3l-57.7-46.5l0,0c0-6.2,53-59.2,59.2-59.2l29.8-21.8l11.9-8.7
		l30.5-41.7L452.2,176.4L452.2,176.4z M159.1,334.9c12.8-12.8,32.5-19.3,49.3-19.3s36.5,6.4,49.3,19.3l52.1,46.5l46.5,56l-46.5,56
		c-1.5,0-49.5,46.2-50.9,45.6c-1.3-0.6-49.1,45.1-50.1,44.1c-27.7-27.7-29-72.2-3.3-101L252,433
		C252.1,433.2,159.1,334.9,159.1,334.9z M416.8,485.1l-46.5-57.7l-115.5,93c-31.9,25.7-36.9,72.4-11.2,104.2L416.8,485.1z
		 M234.1,259.9l19.4,30.7l20.1,31.3c0,6.2,35.4,41.6,41.6,41.6l9.2,3.9l10.1-16l19.3-30.5l27-17.1l-0.9-2.2
		c6.2,0-19.2-35.4-19.2-41.6c-12.8-12.8-40.9-19.3-57.7-19.3c-8.6,0-28.3,1.7-36.4,5C258.9,248.8,240.4,253.6,234.1,259.9z"/>
	
		<linearGradient id="SVGID_00000093144524681783394770000014663544426984977327_" gradientUnits="userSpaceOnUse" x1="161.2059" y1="678.5062" x2="582.8944" y2="678.5062" gradientTransform="matrix(1 0 0 1 0 -278)">
		<stop  offset="0" style="stop-color:#DA2EEF"/>
		<stop  offset="0.5" style="stop-color:#2B6AFF"/>
		<stop  offset="1" style="stop-color:#39D0D8"/>
	</linearGradient>
	<path style="fill:none;stroke:url(#SVGID_00000093144524681783394770000014663544426984977327_);stroke-miterlimit:10;" d="
		M483.2,279.8c-1.8-0.8-32.5,27.5-34.5,27.5l-16.1,19.5l-14.3,17.3L387.8,381l44.9,57.6l52.3,44.9c12.4,12.4,32.4,18.6,48.6,18.6
		s36.2-6.2,48.6-18.6l-44.9-48.3l-44.9-48.3l44.9-48.3c24.8-28.9,23.1-72.8-4.4-100.3C531.5,236.8,485,280.6,483.2,279.8z M455,470
		l-56.1,33.7l-5.6,9.3l-5.6,9.3l31.4,38.9c12.4,12.4,43.6,18.6,59.8,18.6c9.2,0,33.4-2,42-6c10.6-3,20.4-8.9,28.4-16.9
		c1.4-1.4-35.7-41.1-34.9-42.9c0.8-1.8-6.9-11.8-6.9-13.9l0,0L455,470z M444.5,175.5c23.5,15.2,36,42.9,32.6,70.8
		c-2.2,12.4-8,39.2-17.6,48.8l-44.9,59.8l-37.4,22.4l-37.4,22.4L280,354.8l0,0c0-8.3,52.9-61.2,61.2-61.2l31.7-21l12.7-8.4
		l29.4-44.4L444.5,175.5L444.5,175.5z M161.9,347.4c12.4-12.4,32.4-18.6,48.6-18.6s36.2,6.2,48.6,18.6l52.3,44.9l44.9,57.6
		l-44.9,57.6c-2.1,0-48.9,44.4-50.7,43.7c-1.8-0.8-48.3,43-49.6,41.7c-27.5-27.5-29.2-71.4-4.4-100.3l44.9-48.3
		C251.6,444.1,161.9,347.4,161.9,347.4z M414.6,490.9l-44.9-59.8l-119.6,89.7c-33,24.8-39.7,71.6-14.9,104.7L414.6,490.9z
		 M239.7,269.6l18.8,33.7l19.4,34.3c0,8.3,36,44.2,44.2,44.2l8.9,1.7l9.8-17.6l18.6-33.6L389,316l-0.4-2.1c8.3,0-14.4-36-14.4-44.2
		c-12.4-12.4-43.6-18.6-59.8-18.6c-8.3,0-31.5,1.6-39.2,4.8C267.7,259,245.7,263.6,239.7,269.6z"/>
	
		<linearGradient id="SVGID_00000115504238601167008140000005011568697571975829_" gradientUnits="userSpaceOnUse" x1="164.1094" y1="678.5081" x2="579.9926" y2="678.5081" gradientTransform="matrix(1 0 0 1 0 -278)">
		<stop  offset="0" style="stop-color:#DA2EEF"/>
		<stop  offset="0.5" style="stop-color:#2B6AFF"/>
		<stop  offset="1" style="stop-color:#39D0D8"/>
	</linearGradient>
	<path style="fill:none;stroke:url(#SVGID_00000115504238601167008140000005011568697571975829_);stroke-miterlimit:10;" d="
		M481.4,275.4c-2.2-0.9-32.3,26.2-34.9,26.2L431,321.3l-13.8,17.5l-29.4,37.3l43.2,59.1l52.5,43.2c11.9,11.9,32.2,17.9,47.9,17.9
		c15.6,0,35.9-6,47.9-17.9L536,430.9l-43.2-47.6l43.2-47.6c23.9-29,21.8-72.4-5.5-99.6C528.9,234.5,483.7,276.4,481.4,275.4z
		 M459,466.8l-60.4,32.4l-5.4,10.1l-5.4,10.1L418,559c11.9,11.9,46.2,17.9,61.9,17.9c8.9,0,36.5-1.9,44.7-5.8
		c11.4-2.9,21.9-9,30.4-17.6c1.7-1.7-33.7-40.4-32.7-42.7c0.9-2.2-6.3-12.4-6.3-15l0,0L459,466.8z M436.9,174.6
		c25,14.6,39,43.2,35.6,72.5c-2.1,11.9-7.7,42.1-17,51.3l-43.2,61.9L372,381.9l-40.3,21.6L270,360.2l0,0c0-10.3,52.9-63.2,63.2-63.2
		l33.6-20.3l13.4-8.1l28.4-47L436.9,174.6L436.9,174.6z M164.8,359.9C176.7,348,197,342,212.7,342c15.6,0,35.9,6,47.9,17.9
		l52.5,43.2l43.2,59.1l-43.3,59c-2.6,0-48.2,42.7-50.5,41.7c-2.2-0.9-47.4,40.9-49.1,39.2c-27.2-27.2-29.3-70.6-5.5-99.6l43.2-47.5
		C251.2,455,164.8,359.9,164.8,359.9z M412.4,496.8l-43.2-61.9l-123.7,86.4c-34.2,23.9-42.5,70.9-18.7,105.1L412.4,496.8z
		 M245.2,279.4l18.1,36.7l18.7,37.3c0,10.3,36.6,46.9,46.9,46.9l8.5-0.4l9.4-19.2l17.9-36.6l32.4-15.9l0.1-2
		c10.3,0-9.5-36.6-9.5-46.9c-11.9-11.9-46.2-17.9-61.9-17.9c-8,0-34.6,1.5-42.1,4.6C276.5,269.1,251.1,273.6,245.2,279.4z"/>
	
		<linearGradient id="SVGID_00000177474657969649119290000004696592185592162449_" gradientUnits="userSpaceOnUse" x1="166.9133" y1="678.559" x2="576.8852" y2="678.559" gradientTransform="matrix(1 0 0 1 0 -278)">
		<stop  offset="0" style="stop-color:#DA2EEF"/>
		<stop  offset="0.5" style="stop-color:#2B6AFF"/>
		<stop  offset="1" style="stop-color:#39D0D8"/>
	</linearGradient>
	<path style="fill:none;stroke:url(#SVGID_00000177474657969649119290000004696592185592162449_);stroke-miterlimit:10;" d="
		M479.6,271c-2.7-1.1-32.2,24.8-35.3,24.8l-14.9,20l-13.3,17.8l-28.3,37.8l41.5,60.6l52.7,41.5c11.5,11.5,32.1,17.2,47.1,17.2
		s35.7-5.7,47.1-17.2l-41.5-46.8L493.3,380l41.5-46.8c22.9-29.1,20.4-71.9-6.6-98.9C526.3,232.2,482.3,272.1,479.6,271z M463,463.6
		l-64.8,31.2l-5.2,10.8l-5.2,10.8l29.1,40.3c11.5,11.5,48.9,17.2,63.9,17.2c8.6,0,39.5-1.9,47.4-5.6c12.2-2.8,23.4-9.2,32.4-18.2
		c2-2-31.6-39.7-30.5-42.4c1.1-2.7-5.7-13.1-5.7-16.2l0,0L463,463.6z M429.3,173.7c26.5,14.1,41.9,43.5,38.7,74.1
		c-2,11.5-7.5,44.9-16.3,53.8l-41.5,63.9L367,386.3l-43.2,20.8l-63.9-41.5l0,0c0-12.4,52.9-65.2,65.2-65.2l35.5-19.5l14.2-7.8
		l27.3-49.7L429.3,173.7L429.3,173.7z M167.6,372.3c11.5-11.5,32.1-17.2,47.1-17.2s35.7,5.7,47.1,17.2l52.7,41.5l41.5,60.6
		L314.6,535c-3.1,0-47.6,40.9-50.3,39.8c-2.7-1.1-46.6,38.8-48.7,36.7c-27-27-29.5-69.8-6.6-98.9l41.5-46.8
		C250.7,465.9,167.6,372.3,167.6,372.3z M410.2,502.7l-41.5-63.9l-127.9,83.1c-35.3,22.9-45.4,70.2-22.4,105.5L410.2,502.7z
		 M250.8,289.2l17.4,39.8l17.9,40.4c0,12.4,37.1,49.5,49.5,49.5l8.2-2.5l9-20.8l17.2-39.7l35.1-15.3l0.6-2c12.4,0-4.7-37.2-4.7-49.5
		c-11.5-11.5-48.9-17.2-63.9-17.2c-7.6,0-37.7,1.5-44.9,4.5C285.3,279.3,256.4,283.6,250.8,289.2z"/>
	
		<linearGradient id="SVGID_00000162329738522783842990000004783181774933389218_" gradientUnits="userSpaceOnUse" x1="169.8173" y1="678.5613" x2="574.2829" y2="678.5613" gradientTransform="matrix(1 0 0 1 0 -278)">
		<stop  offset="0" style="stop-color:#DA2EEF"/>
		<stop  offset="0.5" style="stop-color:#2B6AFF"/>
		<stop  offset="1" style="stop-color:#39D0D8"/>
	</linearGradient>
	<path style="fill:none;stroke:url(#SVGID_00000162329738522783842990000004783181774933389218_);stroke-miterlimit:10;" d="
		M477.8,266.6c-3.1-1.3-32.1,23.5-35.7,23.5l-14.3,20.2l-12.7,18L388,366.5l39.9,62.1l52.9,39.9c11,11,32,16.5,46.4,16.5
		s35.4-5.5,46.4-16.5l-39.9-46l-39.9-46l39.9-46c22-29.2,19.1-71.5-7.7-98.2C523.6,229.9,480.9,267.9,477.8,266.6z M467,460.4
		l-69.2,29.9l-5,11.5l-5,11.5l27.9,41c11,11,51.6,16.5,66,16.5c8.2,0,42.6-1.8,50.2-5.4c13-2.7,24.9-9.3,34.4-18.8
		c2.4-2.4-29.6-39.1-28.3-42.2s-5.1-13.7-5.1-17.3l0,0L467,460.4z M421.7,172.8c28,13.5,44.9,43.9,41.8,75.8
		c-1.9,11-7.2,47.7-15.7,56.2l-39.9,66l-46.1,19.9l-46.1,19.9l-66-39.9l0,0c0-14.4,52.8-67.3,67.3-67.3l37.4-18.7l14.9-7.5
		l26.2-52.3L421.7,172.8L421.7,172.8z M170.5,384.8c11-11,32-16.5,46.4-16.5s35.4,5.5,46.4,16.5l52.9,39.9l39.9,62.1l-39.9,62.1
		c-3.6,0-46.9,39.1-50.1,37.8c-3.1-1.3-45.8,36.6-48.2,34.3c-26.8-26.8-29.7-69-7.7-98.2l39.9-46
		C250.2,476.8,170.5,384.8,170.5,384.8z M408,508.6l-39.9-66l-132,79.8c-36.5,22-48.2,69.4-26.1,105.9L408,508.6z M256.3,299
		l16.7,42.8l17.2,43.4c0,14.4,37.7,52.2,52.2,52.2l7.9-4.6l8.7-22.4l16.6-42.7l37.8-14.6l1.1-1.9c14.4,0,0.1-37.7,0.1-52.2
		c-11-11-51.6-16.5-66-16.5c-7.3,0-40.8,1.4-47.7,4.3C294.1,289.5,261.7,293.6,256.3,299z"/>
	
		<linearGradient id="SVGID_00000017480106746135158960000008115469021679585722_" gradientUnits="userSpaceOnUse" x1="171.9213" y1="678.4446" x2="571.7704" y2="678.4446" gradientTransform="matrix(1 0 0 1 0 -278)">
		<stop  offset="0" style="stop-color:#DA2EEF"/>
		<stop  offset="0.5" style="stop-color:#2B6AFF"/>
		<stop  offset="1" style="stop-color:#39D0D8"/>
	</linearGradient>
	<path style="fill:none;stroke:url(#SVGID_00000017480106746135158960000008115469021679585722_);stroke-miterlimit:10;" d="
		M475.3,261.4c-3.6-1.5-32,22.1-36.1,22.1L425.4,304l-12.2,18.2l-26,38.7l38.2,63.6l53.2,38.2c10.6,10.6,31.9,15.8,45.7,15.8
		s35.1-5.3,45.7-15.8l-38.2-45.2l-38.2-45.2l38.2-45.2c21.1-29.4,17.8-71-8.8-97.6C520.3,226.9,478.8,262.9,475.3,261.4z
		 M470.2,456.4l-73.5,28.7l-4.8,12.2l-4.8,12.2l26.7,41.7c10.6,10.6,54.3,15.8,68.1,15.8c7.9,0,45.6-1.7,52.9-5.1
		c13.8-2.6,26.4-9.5,36.3-19.5c2.7-2.7-27.6-38.4-26.1-42s-4.5-14.4-4.5-18.5l0,0L470.2,456.4z M413.3,171.2
		c29.5,12.9,47.8,44.2,44.9,77.5c-1.9,10.6-6.9,50.6-15,58.7L405,375.5l-49,19.1l-49,19.1l-68.1-38.2l0,0
		c0-16.5,52.8-69.3,69.3-69.3l39.3-17.9l15.7-7.2l25.1-55L413.3,171.2L413.3,171.2z M172.6,396.5c10.6-10.6,31.9-15.8,45.7-15.8
		s35.1,5.3,45.7,15.8l53.2,38.2l38.2,63.6L317.1,562c-4.1,0-46.3,37.4-49.8,35.9c-3.6-1.5-45,34.5-47.7,31.8
		c-26.5-26.5-29.9-68.2-8.8-97.6l38.2-45.2C249,486.9,172.6,396.5,172.6,396.5z M405,513.7l-38.2-68.1L230.6,522
		c-37.6,21.1-51,68.7-29.9,106.3L405,513.7z M261.1,308l16,45.9l16.5,46.4c0,16.5,38.3,54.8,54.8,54.8l7.5-6.7l8.3-24l15.9-45.7
		l40.5-14l1.6-1.8c16.5,0,4.9-38.3,4.9-54.8c-10.6-10.6-54.3-15.8-68.1-15.8c-7,0-44,1.4-50.6,4.1
		C302.1,298.9,266.3,302.8,261.1,308z"/>
	
		<linearGradient id="SVGID_00000132047402349819400120000016493759691235311270_" gradientUnits="userSpaceOnUse" x1="170.4255" y1="678.3761" x2="573.2207" y2="678.3761" gradientTransform="matrix(1 0 0 1 0 -278)">
		<stop  offset="0" style="stop-color:#DA2EEF"/>
		<stop  offset="0.5" style="stop-color:#2B6AFF"/>
		<stop  offset="1" style="stop-color:#39D0D8"/>
	</linearGradient>
	<path style="fill:none;stroke:url(#SVGID_00000132047402349819400120000016493759691235311270_);stroke-miterlimit:10;" d="
		M469.1,252.7c-4-1.7-31.8,20.8-36.5,20.8l-13.2,20.7l-11.7,18.4L383,351.8l36.6,65.1l53.4,36.6c10.1,10.1,31.7,15.1,45,15.1
		c13.2,0,34.9-5,45-15.1l-36.6-44.4l-36.6-44.4l36.6-44.4c20.2-29.5,16.4-70.6-9.8-96.9C513.3,220.3,473.2,254.4,469.1,252.7z
		 M469.9,448.9L392,476.3l-4.6,13l-4.6,13l25.6,42.4c10.1,10.1,56.9,15.1,70.2,15.1c7.5,0,48.7-1.6,55.6-4.9
		c14.5-2.5,27.9-9.7,38.3-20.1c3-3-25.6-37.7-23.9-41.8s-3.9-15-3.9-19.6l0,0L469.9,448.9z M401.4,166c31,12.4,50.8,44.5,48,79.1
		c-1.8,10.1-6.6,53.4-14.4,61.2l-36.6,70.2l-51.9,18.3l-51.9,18.3l-70.2-36.6l0,0c0-18.6,52.7-71.3,71.3-71.3l41.1-17.1l16.5-6.8
		l24-57.6L401.4,166L401.4,166z M171.1,404.7c10.1-10.1,31.7-15.1,45-15.1c13.2,0,34.9,5,45,15.1l53.4,36.6l36.6,65.1l-36.6,65.1
		c-4.6,0-45.6,35.6-49.6,33.9c-4-1.7-44.2,32.4-47.2,29.3c-26.3-26.3-30-67.4-9.8-96.9l36.6-44.4
		C244.2,493.5,171.1,404.7,171.1,404.7z M398.5,515.3l-36.6-70.2l-140.3,73.1c-38.8,20.2-53.8,68-33.6,106.7L398.5,515.3z
		 M262.3,313.5l15.3,48.9l15.8,49.4c0,18.6,38.9,57.5,57.5,57.5l7.2-8.8l7.9-25.6l15.2-48.8l43.2-13.4l2.1-1.7
		c18.6,0,9.8-38.9,9.8-57.5c-10.1-10.1-56.9-15.1-70.2-15.1c-6.7,0-47.1,1.3-53.4,3.9C306.6,304.8,267.3,308.5,262.3,313.5z"/>
	
		<linearGradient id="SVGID_00000159449993975513611090000010891740212806597802_" gradientUnits="userSpaceOnUse" x1="167.9367" y1="678.4069" x2="576.1976" y2="678.4069" gradientTransform="matrix(1 0 0 1 0 -278)">
		<stop  offset="0" style="stop-color:#DA2EEF"/>
		<stop  offset="0.5" style="stop-color:#2B6AFF"/>
		<stop  offset="1" style="stop-color:#39D0D8"/>
	</linearGradient>
	<path style="fill:none;stroke:url(#SVGID_00000159449993975513611090000010891740212806597802_);stroke-miterlimit:10;" d="
		M464.3,244c-4.5-1.9-31.7,19.4-36.9,19.4l-12.6,21L403.7,303L380,342.6l34.9,66.6l53.6,34.9c9.6,9.6,31.6,14.5,44.2,14.5
		c12.6,0,34.6-4.8,44.2-14.5L522,400.6L487.1,357l34.9-43.6c19.3-29.6,15.1-70.2-10.9-96.2C507.7,213.7,468.7,245.9,464.3,244z
		 M470.9,441.4l-82.2,26.2l-4.3,13.7l-4.3,13.7l24.4,43.1c9.6,9.6,59.6,14.5,72.2,14.5c7.2,0,51.7-1.6,58.4-4.7
		c15.3-2.4,29.4-9.8,40.3-20.7c3.4-3.4-23.5-37.1-21.7-41.5c1.9-4.5-3.3-15.6-3.3-20.8l0,0L470.9,441.4z M390.7,160.8
		c32.5,11.8,53.7,44.9,51.1,80.8c-1.7,9.6-6.3,56.2-13.7,63.7l-34.9,72.2L338.4,395l-54.8,17.4l-72.2-34.9l0,0
		c0-20.6,52.7-73.3,73.3-73.3l43-16.4l17.2-6.5l22.9-60.3L390.7,160.8L390.7,160.8z M170.9,412.9c9.6-9.6,31.6-14.5,44.2-14.5
		s34.6,4.8,44.2,14.5l53.6,34.9l34.9,66.6L312.9,581c-5.2,0-45,33.8-49.4,32c-4.5-1.9-43.4,30.3-46.8,26.9
		c-26-26-30.2-66.6-10.9-96.2l34.9-43.6C240.7,500.1,170.9,412.9,170.9,412.9z M393.2,516.8l-34.9-72.2l-144.5,69.8
		c-39.9,19.3-56.6,67.2-37.4,107.1L393.2,516.8z M264.8,319l14.6,51.9l15.1,52.4c0,20.6,39.5,60.1,60.1,60.1l6.9-10.9l7.6-27.2
		l14.5-51.8l45.9-12.8l2.6-1.6c20.6,0,14.6-39.5,14.6-60.1c-9.6-9.6-59.6-14.5-72.2-14.5c-6.4,0-50.2,1.2-56.2,3.7
		C312.4,310.7,269.5,314.3,264.8,319z"/>
	
		<linearGradient id="SVGID_00000166639228390493102700000017262463279888379031_" gradientUnits="userSpaceOnUse" x1="161.3203" y1="678.4422" x2="582.8715" y2="678.4422" gradientTransform="matrix(1 0 0 1 0 -278)">
		<stop  offset="0" style="stop-color:#DA2EEF"/>
		<stop  offset="0.5" style="stop-color:#2B6AFF"/>
		<stop  offset="1" style="stop-color:#39D0D8"/>
	</linearGradient>
	<path style="fill:none;stroke:url(#SVGID_00000166639228390493102700000017262463279888379031_);stroke-miterlimit:10;" d="
		M463.4,235.3c-4.9-2.1-31.6,18-37.3,18l-12,21.2l-10.6,18.8l-22.6,40.1l33.2,68.2l53.8,33.2c9.2,9.2,31.5,13.8,43.5,13.8
		c12,0,34.3-4.6,43.5-13.8L521.7,392l-33.2-42.8l33.2-42.8c18.4-29.7,13.8-69.7-12-95.5C505.9,207.2,468.3,237.4,463.4,235.3z
		 M475.8,433.9l-86.6,24.9l-4.1,14.4l-4.1,14.4l23.3,43.8c9.2,9.2,62.3,13.8,74.3,13.8c6.8,0,54.8-1.5,61.1-4.5
		c16.1-2.3,30.9-10,42.3-21.3c3.7-3.7-21.5-36.4-19.4-41.3s-2.7-16.3-2.7-22l0,0L475.8,433.9z M384,155.6
		c34,11.3,56.7,45.2,54.1,82.5c-1.6,9.2-6,59.1-13.1,66.2l-33.2,74.3l-57.7,16.6l-57.7,16.6l-74.3-33.2l0,0
		c0-22.7,52.7-75.4,75.4-75.4l44.9-15.6l18-6.2l21.8-62.9L384,155.6L384,155.6z M174.6,421.1c9.2-9.2,31.5-13.8,43.5-13.8
		s34.3,4.6,43.5,13.8l53.8,33.2l33.2,68.2l-33.2,68.2c-5.7,0-44.3,32.1-49.2,30c-4.9-2.1-42.6,28.1-46.3,24.4
		c-25.8-25.8-30.4-65.8-12-95.5l33.2-42.8C241.1,506.7,174.6,421.1,174.6,421.1z M391.8,518.4l-33.2-74.3L210,510.5
		c-41,18.4-59.4,66.5-41.1,107.5L391.8,518.4z M271.2,324.5l13.9,55l14.4,55.4c0,22.7,40.1,62.8,62.8,62.8l6.6-13l7.2-28.8
		l13.8-54.9l48.6-12.2l3.2-1.6c22.7,0,19.4-40.1,19.4-62.8c-9.2-9.2-62.3-13.8-74.3-13.8c-6.1,0-53.3,1.2-59.1,3.6
		C322,316.6,275.8,320,271.2,324.5z"/>
	
		<linearGradient id="SVGID_00000096061508102189284860000000227115579901195402_" gradientUnits="userSpaceOnUse" x1="154.5804" y1="678.4335" x2="589.5796" y2="678.4335" gradientTransform="matrix(1 0 0 1 0 -278)">
		<stop  offset="0" style="stop-color:#DA2EEF"/>
		<stop  offset="0.5" style="stop-color:#2B6AFF"/>
		<stop  offset="1" style="stop-color:#39D0D8"/>
	</linearGradient>
	<path style="fill:none;stroke:url(#SVGID_00000096061508102189284860000000227115579901195402_);stroke-miterlimit:10;" d="
		M462.5,226.6c-5.4-2.3-31.5,16.7-37.7,16.7l-11.4,21.4l-10.1,19.1l-21.5,40.5l31.6,69.7l54,31.6c8.7,8.7,31.3,13.1,42.8,13.1
		c11.4,0,34.1-4.4,42.8-13.1l-31.6-42l-31.6-42l31.6-42c17.4-29.8,12.4-69.3-13.1-94.8C504.2,200.6,467.8,228.8,462.5,226.6z
		 M480.7,426.3L389.8,450l-3.9,15.1l-3.9,15.1l22.1,44.5c8.7,8.7,65,13.1,76.4,13.1c6.5,0,57.8-1.4,63.8-4.2
		c16.9-2.1,32.4-10.1,44.3-22c4.1-4.1-19.5-35.7-17.2-41.1s-2.1-16.9-2.1-23.1l0,0L480.7,426.3z M377.3,150.4
		c35.5,10.7,59.7,45.5,57.2,84.1c-1.5,8.7-5.7,61.9-12.4,68.6l-31.6,76.4l-60.6,15.8l-60.6,15.8l-76.4-31.6l0,0
		c0-24.8,52.6-77.4,77.4-77.4l46.8-14.8l18.7-5.9l20.7-65.5L377.3,150.4L377.3,150.4z M178.4,429.2c8.7-8.7,31.3-13.1,42.8-13.1
		c11.4,0,34.1,4.4,42.8,13.1l54,31.6l31.6,69.7L318,600.2c-6.2,0-43.7,30.3-49,28s-41.8,26-45.8,22c-25.5-25.5-30.6-65-13.1-94.8
		l31.6-42C241.5,513.3,178.4,429.2,178.4,429.2z M390.5,520L359,443.6l-152.8,63.1c-42.2,17.4-62.3,65.8-44.8,108L390.5,520z
		 M277.7,329.9l13.2,58l13.6,58.5c0,24.8,40.7,65.4,65.4,65.4l6.2-15.1l6.9-30.4l13.1-57.9l51.3-11.6l3.7-1.5
		c24.8,0,24.2-40.7,24.2-65.4c-8.7-8.7-65-13.1-76.4-13.1c-5.8,0-56.5,1.1-61.9,3.4C331.8,322.4,282,325.7,277.7,329.9z"/>
	
		<linearGradient id="SVGID_00000080184694614898318400000000070789991792115083_" gradientUnits="userSpaceOnUse" x1="147.8876" y1="678.4426" x2="596.186" y2="678.4426" gradientTransform="matrix(1 0 0 1 0 -278)">
		<stop  offset="0" style="stop-color:#DA2EEF"/>
		<stop  offset="0.5" style="stop-color:#2B6AFF"/>
		<stop  offset="1" style="stop-color:#39D0D8"/>
	</linearGradient>
	<path style="fill:none;stroke:url(#SVGID_00000080184694614898318400000000070789991792115083_);stroke-miterlimit:10;" d="
		M461.6,217.8c-5.8-2.5-31.3,15.3-38,15.3l-10.8,21.7l-9.6,19.3l-20.4,41l29.9,71.2l54.2,29.9c8.3,8.3,31.2,12.4,42,12.4
		s33.8-4.1,42-12.4L521.2,375l-29.9-41.2l29.9-41.2c16.5-29.9,11.1-68.8-14.2-94.1C502.5,193.9,467.4,220.3,461.6,217.8z
		 M485.6,418.8l-95.3,22.4l-3.7,15.9l-3.7,15.9l20.9,45.2c8.3,8.3,67.6,12.4,78.5,12.4c6.2,0,60.9-1.3,66.6-4
		c17.7-2,33.9-10.3,46.2-22.6c4.4-4.4-17.5-35-15-40.9c2.5-5.8-1.6-17.6-1.6-24.3l0,0L485.6,418.8z M370.6,145.2
		c37,10.1,62.6,45.9,60.3,85.8c-1.4,8.3-5.4,64.7-11.7,71.1l-29.9,78.5l-63.5,15l-63.5,15l-78.5-29.9l0,0
		c0-26.8,52.6-79.4,79.4-79.4l48.7-14l19.5-5.6l19.6-68.2L370.6,145.2L370.6,145.2z M182.2,437.4c8.3-8.3,31.2-12.4,42-12.4
		s33.8,4.1,42,12.4l54.2,29.9l29.9,71.2l-29.9,71.2c-6.7,0-43,28.5-48.8,26.1s-40.9,23.9-45.3,19.5C201,630,195.6,591,212.1,561.1
		l29.9-41.2C242,519.9,182.2,437.4,182.2,437.4z M389.3,521.5L359.4,443l-156.9,59.8c-43.3,16.5-65.1,65-48.6,108.4L389.3,521.5z
		 M284.2,335.4l12.5,61.1l12.9,61.5c0,26.8,41.3,68.1,68.1,68.1l5.9-17.2l6.5-32l12.4-61l54-11l4.2-1.4c26.8,0,29-41.3,29-68.1
		c-8.3-8.3-67.6-12.4-78.5-12.4c-5.5,0-59.6,1.1-64.7,3.2C341.5,328.3,288.3,331.3,284.2,335.4z"/>
	
		<linearGradient id="SVGID_00000087402653366436480690000000436073545786570881_" gradientUnits="userSpaceOnUse" x1="141.0659" y1="678.4102" x2="603.0152" y2="678.4102" gradientTransform="matrix(1 0 0 1 0 -278)">
		<stop  offset="0" style="stop-color:#DA2EEF"/>
		<stop  offset="0.5" style="stop-color:#2B6AFF"/>
		<stop  offset="1" style="stop-color:#39D0D8"/>
	</linearGradient>
	<path style="fill:none;stroke:url(#SVGID_00000087402653366436480690000000436073545786570881_);stroke-miterlimit:10;" d="
		M460.8,209.1c-6.3-2.6-31.2,14-38.4,14L412.2,245l-9,19.5L384,305.9l28.2,72.7l54.4,28.2c7.8,7.8,31.1,11.7,41.3,11.7
		s33.5-3.9,41.3-11.7L521,366.4L492.7,326l28.2-40.5c15.6-30,9.7-68.4-15.3-93.5C500.9,187.3,467,211.7,460.8,209.1z M490.6,411.3
		L391,432.5l-3.5,16.6l-3.5,16.6l19.8,45.9c7.8,7.8,70.3,11.7,80.5,11.7c5.8,0,63.9-1.3,69.3-3.8c18.5-1.9,35.4-10.4,48.2-23.2
		c4.7-4.7-15.4-34.4-12.8-40.6s-1-18.2-1-25.4l0,0L490.6,411.3z M363.9,140c38.5,9.6,65.6,46.2,63.4,87.5
		c-1.4,7.8-5.1,67.6-11.1,73.6L388,381.6l-66.4,14.1l-66.4,14.1l-80.5-28.2l0,0c0-28.9,52.5-81.4,81.4-81.4l50.6-13.2l20.2-5.3
		l18.5-70.8L363.9,140L363.9,140z M186,445.6c7.8-7.8,31.1-11.7,41.3-11.7s33.5,3.9,41.3,11.7l54.4,28.2l28.2,72.7L323,619.2
		c-7.2,0-42.3,26.8-48.6,24.1s-40.1,21.8-44.9,17c-25.1-25.1-30.9-63.4-15.3-93.5l28.2-40.4C242.5,526.5,186,445.6,186,445.6z
		 M388,523.1l-28.2-80.5L198.7,499c-44.5,15.6-67.9,64.3-52.3,108.8L388,523.1z M290.7,340.8l11.8,64.1l12.2,64.5
		c0,28.9,41.8,70.7,70.7,70.7l5.6-19.3l6.1-33.6l11.7-64l56.7-10.4l4.7-1.3c28.9,0,33.9-41.9,33.9-70.7
		c-7.8-7.8-70.3-11.7-80.5-11.7c-5.2,0-62.7,1-67.6,3C351.2,334.1,294.5,337,290.7,340.8z"/>
	
		<linearGradient id="SVGID_00000092427896255141563690000000421218300205435827_" gradientUnits="userSpaceOnUse" x1="134.2974" y1="678.4672" x2="609.7944" y2="678.4672" gradientTransform="matrix(1 0 0 1 0 -278)">
		<stop  offset="0" style="stop-color:#DA2EEF"/>
		<stop  offset="0.5" style="stop-color:#2B6AFF"/>
		<stop  offset="1" style="stop-color:#39D0D8"/>
	</linearGradient>
	<path style="fill:none;stroke:url(#SVGID_00000092427896255141563690000000421218300205435827_);stroke-miterlimit:10;" d="
		M459.9,200.3c-6.7-2.8-31.1,12.6-38.8,12.6l-9.6,22.2l-8.5,19.7l-18.1,41.9l26.6,74.2l54.6,26.6c7.3,7.3,31,11,40.6,11
		c9.6,0,33.3-3.7,40.6-11l-26.6-39.6l-26.6-39.7l26.6-39.7c14.7-30.2,8.4-68-16.4-92.8C499.2,180.7,466.6,203.2,459.9,200.3z
		 M495.6,403.7l-104,20l-3.3,17.3l-3.3,17.3l18.6,46.6c7.3,7.3,73,11,82.6,11c5.5,0,67-1.2,72-3.6c19.3-1.8,36.9-10.6,50.2-23.9
		c5.1-5.1-13.4-33.7-10.6-40.4c2.8-6.7-0.4-18.8-0.4-26.6l0,0L495.6,403.7z M357.3,134.8c40,9,68.5,46.5,66.5,89.1
		c-1.3,7.3-4.8,70.4-10.4,76.1l-26.6,82.6l-69.3,13.3l-69.3,13.3l-82.6-26.6l0,0c0-30.9,52.5-83.4,83.4-83.4l52.5-12.5l21-5
		l17.4-73.5L357.3,134.8L357.3,134.8z M189.8,453.7c7.3-7.3,31-11,40.6-11c9.6,0,33.3,3.7,40.6,11l54.6,26.6l26.6,74.2l-26.6,74.2
		c-7.7,0-41.7,25-48.4,22.2c-6.7-2.8-39.3,19.6-44.4,14.6c-24.8-24.8-31.1-62.6-16.4-92.8L243,533L189.8,453.7z M386.7,524.6
		L360.2,442L195,495.2c-45.6,14.7-70.7,63.6-56,109.2L386.7,524.6z M297.2,346.3l11.1,67.1l11.5,67.5c0,30.9,42.4,73.4,73.4,73.4
		l5.2-21.4l5.8-35.2l11-67.1l59.4-9.8l5.2-1.2c30.9,0,38.7-42.4,38.7-73.4c-7.3-7.3-73-11-82.6-11c-4.9,0-65.8,1-70.4,2.9
		C361,340,300.8,342.7,297.2,346.3z"/>
	
		<linearGradient id="SVGID_00000024709575592982896480000008854201487831235488_" gradientUnits="userSpaceOnUse" x1="127.3098" y1="678.4113" x2="616.6779" y2="678.4113" gradientTransform="matrix(1 0 0 1 0 -278)">
		<stop  offset="0" style="stop-color:#DA2EEF"/>
		<stop  offset="0.5" style="stop-color:#2B6AFF"/>
		<stop  offset="1" style="stop-color:#39D0D8"/>
	</linearGradient>
	<path style="fill:none;stroke:url(#SVGID_00000024709575592982896480000008854201487831235488_);stroke-miterlimit:10;" d="
		M459.1,191.6c-7.2-3-31,11.3-39.2,11.3l-9,22.4l-8,19.9l-17,42.4l24.9,75.7l54.8,24.9c6.9,6.9,30.8,10.3,39.9,10.3
		s33-3.4,39.9-10.3l-24.9-38.8l-24.9-38.9l24.9-38.9c13.8-30.3,7.1-67.5-17.5-92.1C497.6,174.1,466.3,194.6,459.1,191.6z
		 M500.6,396.1l-108.4,18.7l-3.1,18l-3.1,18l17.4,47.3c6.9,6.9,75.7,10.3,84.7,10.3c5.1,0,70-1.1,74.8-3.3
		c20.1-1.7,38.4-10.7,52.2-24.5c5.4-5.4-11.4-33-8.4-40.2s0.2-19.5,0.2-27.7l0,0L500.6,396.1z M350.7,129.6
		c41.5,8.4,71.5,46.9,69.6,90.8c-1.2,6.9-4.5,73.3-9.8,78.6l-24.9,84.7l-72.2,12.5l-72.2,12.5l-84.7-24.9l0,0
		c0-33,52.5-85.5,85.5-85.5l54.4-11.7l21.8-4.7l16.4-76.1L350.7,129.6L350.7,129.6z M193.7,461.8c6.9-6.9,30.8-10.3,39.9-10.3
		c9,0,33,3.4,39.9,10.3l54.8,24.9l24.9,75.7l-24.9,75.7c-8.3,0-41,23.2-48.2,20.2s-38.5,17.5-43.9,12.1
		c-24.6-24.6-31.3-61.8-17.5-92.1l24.9-38.8C243.5,539.6,193.7,461.8,193.7,461.8z M385.5,526.1l-24.9-84.7l-169.4,49.8
		c-46.8,13.8-73.5,62.8-59.8,109.6L385.5,526.1z M303.8,351.7l10.4,70.2l10.8,70.5c0,33,43,76,76,76l4.9-23.5l5.4-36.8l10.3-70.1
		l62.1-9.2l5.7-1.2c33,0,43.5-43,43.5-76c-6.9-6.9-75.7-10.3-84.7-10.3c-4.6,0-68.9,0.9-73.3,2.7
		C370.8,345.8,307.1,348.3,303.8,351.7z"/>
	
		<linearGradient id="SVGID_00000008129064387491745400000008883991569792638637_" gradientUnits="userSpaceOnUse" x1="120.4307" y1="678.456" x2="623.6989" y2="678.456" gradientTransform="matrix(1 0 0 1 0 -278)">
		<stop  offset="0" style="stop-color:#DA2EEF"/>
		<stop  offset="0.5" style="stop-color:#2B6AFF"/>
		<stop  offset="1" style="stop-color:#39D0D8"/>
	</linearGradient>
	<path style="fill:none;stroke:url(#SVGID_00000008129064387491745400000008883991569792638637_);stroke-miterlimit:10;" d="
		M458.3,182.8c-7.6-3.2-30.8,9.9-39.6,9.9l-8.4,22.7l-7.4,20.1l-15.8,42.8l23.3,77.2l55,23.3c6.4,6.4,30.7,9.6,39.1,9.6
		c8.4,0,32.7-3.2,39.1-9.6l-23.3-38.1L497,302.6l23.3-38.1c12.8-30.4,5.7-67.1-18.6-91.4C496,167.4,465.9,186,458.3,182.8z
		 M505.6,388.6L392.9,406l-2.9,18.8l-2.9,18.8l16.3,48c6.4,6.4,78.3,9.6,86.8,9.6c4.8,0,73.1-1,77.5-3.1
		c20.9-1.6,39.9-10.9,54.2-25.1c5.7-5.7-9.4-32.4-6.2-40s0.8-20.1,0.8-28.9l0,0L505.6,388.6z M344,124.3c43,7.9,74.4,47.2,72.6,92.5
		c-1.1,6.4-4.2,76.1-9.1,81.1l-23.3,86.8l-75.1,11.6L234,407.9l-86.8-23.3l0,0c0-35.1,52.4-87.5,87.5-87.5l56.3-10.9l22.5-4.4
		l15.3-78.8L344,124.3L344,124.3z M197.5,469.9c6.4-6.4,30.7-9.6,39.1-9.6s32.7,3.2,39.1,9.6l55,23.3l23.3,77.2l-23.3,77.2
		c-8.8,0-40.4,21.5-48,18.3s-37.7,15.4-43.4,9.7c-24.3-24.3-31.4-61-18.6-91.4l23.3-38.1C244,546.1,197.5,469.9,197.5,469.9z
		 M384.3,527.6L361,440.9l-173.5,46.5c-47.9,12.8-76.3,62.1-63.5,110L384.3,527.6z M310.3,357.1l9.7,73.2l10,73.6
		c0,35.1,43.6,78.7,78.7,78.7l4.6-25.6l5.1-38.4l9.7-73.2l64.8-8.5l6.2-1.1c35.1,0,48.3-43.6,48.3-78.7c-6.4-6.4-78.3-9.6-86.8-9.6
		c-4.3,0-72.1,0.8-76.1,2.5C380.6,351.6,313.5,354,310.3,357.1z"/>
	
		<linearGradient id="SVGID_00000110437303265216996940000001431334272216610237_" gradientUnits="userSpaceOnUse" x1="113.4636" y1="678.4897" x2="630.4054" y2="678.4897" gradientTransform="matrix(1 0 0 1 0 -278)">
		<stop  offset="0" style="stop-color:#DA2EEF"/>
		<stop  offset="0.5" style="stop-color:#2B6AFF"/>
		<stop  offset="1" style="stop-color:#39D0D8"/>
	</linearGradient>
	<path style="fill:none;stroke:url(#SVGID_00000110437303265216996940000001431334272216610237_);stroke-miterlimit:10;" d="
		M457.5,174c-8-3.4-30.7,8.5-40,8.5l-7.8,22.9l-6.9,20.4l-14.7,43.3l21.6,78.8l55.2,21.6c6,6,30.6,8.9,38.4,8.9s32.4-3,38.4-8.9
		l-21.6-37.3l-21.6-37.3l21.6-37.3c11.9-30.5,4.4-66.6-19.7-90.7C494.4,160.7,465.5,177.4,457.5,174z M510.6,380.9l-117.1,16.2
		l-2.7,19.5l-2.7,19.5l15.1,48.7c6,6,81,8.9,88.8,8.9c4.4,0,76.1-1,80.2-2.9c21.7-1.5,41.4-11,56.1-25.7c6.1-6.1-7.4-31.7-3.9-39.7
		c3.4-8,1.4-20.8,1.4-30l0,0L510.6,380.9z M337.4,119c44.5,7.3,77.4,47.5,75.7,94.1c-1,6-3.9,78.9-8.5,83.5L383,385.4l-78,10.8
		L227,407l-88.8-21.6l0,0c0-37.1,52.4-89.5,89.5-89.5l58.1-10.1l23.3-4l14.2-81.4L337.4,119L337.4,119z M201.4,478
		c6-6,30.6-8.9,38.4-8.9c7.8,0,32.4,3,38.4,8.9l55.2,21.6l21.6,78.8l-21.6,78.8c-9.3,0-39.7,19.7-47.8,16.3c-8-3.4-36.9,13.3-43,7.2
		c-24.1-24.1-31.6-60.2-19.7-90.7l21.6-37.3C244.5,552.6,201.4,478,201.4,478z M383.1,529.1l-21.6-88.8l-177.7,43.2
		c-49.1,11.9-79.2,61.4-67.2,110.4L383.1,529.1z M316.8,362.5l9,76.3l9.3,76.6c0,37.1,44.2,81.3,81.3,81.3l4.3-27.7l4.7-40l9-76.2
		l67.5-7.9l6.7-1c37.1,0,53.1-44.2,53.1-81.3c-6-6-81-8.9-88.8-8.9c-4,0-75.2,0.8-78.9,2.3C390.4,357.4,319.8,359.6,316.8,362.5z"/>
	
		<linearGradient id="SVGID_00000114782094143748567250000003445119723509946499_" gradientUnits="userSpaceOnUse" x1="106.4248" y1="678.4341" x2="637.6517" y2="678.4341" gradientTransform="matrix(1 0 0 1 0 -278)">
		<stop  offset="0" style="stop-color:#DA2EEF"/>
		<stop  offset="0.5" style="stop-color:#2B6AFF"/>
		<stop  offset="1" style="stop-color:#39D0D8"/>
	</linearGradient>
	<path style="fill:none;stroke:url(#SVGID_00000114782094143748567250000003445119723509946499_);stroke-miterlimit:10;" d="
		M456.7,165.2c-8.5-3.6-30.6,7.2-40.4,7.2l-7.2,23.1l-6.4,20.6l-13.6,43.7l19.9,80.3l55.4,19.9c5.5,5.5,30.5,8.3,37.7,8.3
		s32.2-2.8,37.7-8.3l-19.9-36.5L500,287l19.9-36.5c11-30.6,3.1-66.2-20.8-90.1C492.7,154,465.2,168.8,456.7,165.2z M515.6,373.3
		l-121.4,15l-2.5,20.2l-2.5,20.2l14,49.4c5.5,5.5,83.7,8.3,90.9,8.3c4.1,0,79.2-0.9,83-2.7c22.5-1.4,42.9-11.2,58.1-26.4
		c6.4-6.4-5.3-31-1.7-39.5s2-21.4,2-31.2l0,0L515.6,373.3z M330.8,113.7c46,6.8,80.3,47.9,78.8,95.8c-1,5.5-3.6,81.8-7.8,86
		l-19.9,90.9l-80.9,10l-80.9,10L129,386.5l0,0c0-39.2,52.3-91.5,91.5-91.5l60-9.3l24-3.7l13.1-84.1L330.8,113.7L330.8,113.7z
		 M205.2,486.1c5.5-5.5,30.5-8.3,37.7-8.3s32.2,2.8,37.7,8.3L336,506l19.9,80.3L336,666.5c-9.8,0-39.1,18-47.6,14.4
		s-36.1,11.1-42.5,4.7c-23.9-23.9-31.8-59.5-20.8-90.1L245,559C245.1,559.1,205.2,486.1,205.2,486.1z M381.8,530.6l-19.9-90.9
		l-181.8,39.9c-50.2,11-82,60.6-71,110.8L381.8,530.6z M323.4,367.9l8.3,79.3l8.6,79.6c0,39.2,44.8,84,84,84l3.9-29.8l4.3-41.6
		l8.3-79.2l70.2-7.3l7.2-0.9c39.2,0,58-44.8,58-84c-5.5-5.5-83.7-8.3-90.9-8.3c-3.7,0-78.3,0.7-81.8,2.1
		C400.2,363.1,326.1,365.2,323.4,367.9z"/>
	
		<linearGradient id="SVGID_00000004546051460571785950000004810697223281986437_" gradientUnits="userSpaceOnUse" x1="98.7991" y1="678.5081" x2="645.0798" y2="678.5081" gradientTransform="matrix(1 0 0 1 0 -278)">
		<stop  offset="0" style="stop-color:#DA2EEF"/>
		<stop  offset="0.5" style="stop-color:#2B6AFF"/>
		<stop  offset="1" style="stop-color:#39D0D8"/>
	</linearGradient>
	<path style="fill:none;stroke:url(#SVGID_00000004546051460571785950000004810697223281986437_);stroke-miterlimit:10;" d="
		M455.4,156.3c-8.9-3.8-30.5,5.8-40.8,5.8l-6.6,23.4l-5.8,20.8l-12.4,44.2l18.3,81.8l55.6,18.3c5,5,30.3,7.6,37,7.6
		c6.6,0,31.9-2.5,37-7.6l-18.3-35.7L501,279.1l18.3-35.7c10.1-30.7,1.7-65.8-21.9-89.4C490.7,147.3,464.3,160.1,455.4,156.3z
		 M520.1,365.6l-125.8,13.7l-2.3,21l-2.3,21l12.8,50.1c5,5,86.4,7.6,93,7.6c3.8,0,82.2-0.8,85.7-2.5c23.3-1.2,44.4-11.3,60.1-27
		c6.8-6.8-3.3-30.3,0.5-39.3c3.8-8.9,2.6-22,2.6-32.4l0,0L520.1,365.6z M323.7,108.4c47.5,6.2,83.3,48.2,81.9,97.5
		c-0.9,5.1-3.3,84.6-7.2,88.5l-18.3,93l-83.8,9.1l-83.8,9.1l-93-18.3l0,0c0-41.3,52.3-93.6,93.6-93.6l61.9-8.6l24.8-3.4l12-86.7
		L323.7,108.4L323.7,108.4z M208.6,494.1c5-5,30.3-7.6,37-7.6s31.9,2.5,37,7.6l55.6,18.3l18.3,81.8L338.2,676
		c-10.3,0-38.4,16.2-47.4,12.4c-8.9-3.8-35.3,9-42,2.3c-23.6-23.6-32-58.7-21.9-89.4l18.3-35.7C245.1,565.5,208.6,494.1,208.6,494.1
		z M380.1,532l-18.3-93l-186,36.6c-51.4,10.1-84.8,59.9-74.7,111.3L380.1,532z M329.5,373.2l7.6,82.3l7.9,82.6
		c0,41.3,45.4,86.6,86.6,86.6l3.6-31.9l4-43.2l7.6-82.3l72.9-6.7l7.7-0.9c41.3,0,62.8-45.4,62.8-86.6c-5-5-86.4-7.6-93-7.6
		c-3.4,0-81.4,0.7-84.6,2C409.5,368.9,331.9,370.7,329.5,373.2z"/>
	
		<linearGradient id="SVGID_00000072974051720089893280000013517139077820126595_" gradientUnits="userSpaceOnUse" x1="90.7354" y1="678.5139" x2="653.3653" y2="678.5139" gradientTransform="matrix(1 0 0 1 0 -278)">
		<stop  offset="0" style="stop-color:#DA2EEF"/>
		<stop  offset="0.5" style="stop-color:#2B6AFF"/>
		<stop  offset="1" style="stop-color:#39D0D8"/>
	</linearGradient>
	<path style="fill:none;stroke:url(#SVGID_00000072974051720089893280000013517139077820126595_);stroke-miterlimit:10;" d="
		M453.5,147.4c-9.4-4-30.3,4.5-41.2,4.5l-6,23.6l-5.3,21l-11.3,44.6l16.6,83.3l55.8,16.6c4.6,4.6,30.2,6.9,36.2,6.9
		s31.6-2.3,36.2-6.9L518,306.2l-16.6-34.9l16.6-34.9c9.2-30.8,0.4-65.3-23-88.7C487.9,140.5,462.8,151.4,453.5,147.4z M524,357.9
		l-130.1,12.5l-2.1,21.7l-2.1,21.7l11.6,50.9c4.6,4.6,89,6.9,95.1,6.9c3.4,0,85.3-0.7,88.4-2.2c24.1-1.1,45.9-11.5,62.1-27.6
		c7.1-7.1-1.3-29.7,2.7-39.1s3.2-22.7,3.2-33.5l0,0L524,357.9z M316,103c49,5.6,86.2,48.5,85,99.1c-0.8,4.6-3,87.4-6.5,91
		l-16.6,95.1l-86.8,8.3l-86.8,8.3l-95.1-16.6l0,0c0-43.3,52.3-95.6,95.6-95.6l63.8-7.8l25.5-3.1l10.9-89.3L316,103L316,103z
		 M211.3,502.1c4.6-4.6,30.2-6.9,36.2-6.9s31.6,2.3,36.2,6.9l55.8,16.6l16.6,83.3l-16.6,83.3c-10.8,0-37.8,14.4-47.1,10.5
		s-34.5,6.9-41.5-0.2c-23.4-23.4-32.2-57.9-23-88.7l16.6-34.9C244.5,571.9,211.3,502.1,211.3,502.1z M377.8,533.4l-16.6-95.1
		l-190.1,33.2c-52.5,9.2-87.6,59.2-78.4,111.7L377.8,533.4z M334.9,378.5l6.9,85.4l7.2,85.6c0,43.3,46,89.3,89.3,89.3l3.3-34
		l3.6-44.8l6.9-85.3l75.5-6.1l8.2-0.8c43.3,0,67.6-46,67.6-89.3c-4.6-4.6-89-6.9-95.1-6.9c-3.1,0-84.6,0.6-87.4,1.8
		C418.2,374.5,337.1,376.2,334.9,378.5z"/>
	
		<linearGradient id="SVGID_00000036217854501487663080000018092501865378655395_" gradientUnits="userSpaceOnUse" x1="82.257" y1="678.5021" x2="661.6102" y2="678.5021" gradientTransform="matrix(1 0 0 1 0 -278)">
		<stop  offset="0" style="stop-color:#DA2EEF"/>
		<stop  offset="0.5" style="stop-color:#2B6AFF"/>
		<stop  offset="1" style="stop-color:#39D0D8"/>
	</linearGradient>
	<path style="fill:none;stroke:url(#SVGID_00000036217854501487663080000018092501865378655395_);stroke-miterlimit:10;" d="
		M451.5,138.2c-9.8-4.2-30.2,3.1-41.6,3.1l-5.4,23.9l-4.8,21.2l-10.2,45.1l15,84.8l56,15c4.1,4.1,30.1,6.2,35.5,6.2
		s31.4-2.1,35.5-6.2l-15-34.1l-15-34.1l15-34.1c8.3-31-0.9-64.9-24.1-88C485.1,133.4,461.3,142.4,451.5,138.2z M527.8,349.9
		l-134.5,11.2l-1.9,22.4l-1.9,22.4l10.5,51.6c4.1,4.1,91.7,6.2,97.1,6.2c3.1,0,88.3-0.7,91.2-2c24.8-1,47.4-11.6,64.1-28.3
		c7.4-7.4,0.7-29,4.9-38.8s3.8-23.3,3.8-34.7l0,0L527.8,349.9z M308.2,97.3c50.5,5.1,89.2,48.9,88.1,100.8
		c-0.7,4.1-2.7,90.3-5.9,93.5l-15,97.1l-89.7,7.5l-89.7,7.5l-97.1-15l0,0c0-45.4,52.2-97.6,97.6-97.6l65.7-7l26.3-2.8l9.8-92
		L308.2,97.3L308.2,97.3z M214,509.8c4.1-4.1,30.1-6.2,35.5-6.2s31.4,2.1,35.5,6.2l56,15l15,84.8l-15,84.8
		c-11.3,0-37.1,12.7-46.9,8.5s-33.6,4.8-41.1-2.7c-23.1-23.1-32.3-57.1-24.1-88l15-34.1C243.9,578,214,509.8,214,509.8z
		 M375.4,534.5l-15-97.1l-194.3,29.9c-53.6,8.3-90.4,58.4-82.2,112.1L375.4,534.5z M340.3,383.5l6.3,88.4l6.5,88.6
		c0,45.4,46.6,91.9,91.9,91.9l3-36.1l3.3-46.4l6.2-88.4l78.2-5.5l8.7-0.7c45.4,0,72.4-46.6,72.4-91.9c-4.1-4.1-91.7-6.2-97.1-6.2
		c-2.8,0-87.7,0.5-90.3,1.6C426.8,379.9,342.3,381.5,340.3,383.5z"/>
	
		<linearGradient id="SVGID_00000005968134973697143640000014839572382024012218_" gradientUnits="userSpaceOnUse" x1="73.9891" y1="678.4526" x2="669.9" y2="678.4526" gradientTransform="matrix(1 0 0 1 0 -278)">
		<stop  offset="0" style="stop-color:#DA2EEF"/>
		<stop  offset="0.5" style="stop-color:#2B6AFF"/>
		<stop  offset="1" style="stop-color:#39D0D8"/>
	</linearGradient>
	<path style="fill:none;stroke:url(#SVGID_00000005968134973697143640000014839572382024012218_);stroke-miterlimit:10;" d="
		M449.5,128.2c-10.3-4.3-30.1,1.8-42,1.8l-4.8,24.1l-4.2,21.4l-9,45.6l13.3,86.3l56.2,13.3c3.7,3.7,30,5.5,34.8,5.5
		s31.1-1.8,34.8-5.5l-13.3-33.3L502,254l13.3-33.4c7.3-31.1-2.3-64.4-25.2-87.3C482.4,125.5,459.8,132.5,449.5,128.2z M531.7,341.1
		l-138.8,10l-1.7,23.1l-1.7,23.1l9.3,52.3c3.7,3.7,94.4,5.5,99.2,5.5c2.7,0,91.4-0.6,93.9-1.8c25.6-0.9,48.9-11.8,66-28.9
		c7.8-7.8,2.8-28.3,7.1-38.6s4.4-24,4.4-35.8l0,0L531.7,341.1z M300.4,90.9c52,4.5,92.2,49.2,91.1,102.5c-0.6,3.7-2.4,93.1-5.2,95.9
		L373,388.5l-92.6,6.6l-92.6,6.6l-99.2-13.3l0,0c0-47.4,52.2-99.6,99.6-99.6l67.6-6.2l27.1-2.5l8.7-94.6L300.4,90.9L300.4,90.9z
		 M216.7,516.6c3.7-3.7,30-5.5,34.8-5.5c4.8,0,31.1,1.8,34.8,5.5l56.2,13.3l13.3,86.3l-13.3,86.3c-11.9,0-36.5,10.9-46.7,6.5
		c-10.3-4.3-32.8,2.7-40.6-5.1c-22.9-22.9-32.5-56.3-25.2-87.3l13.3-33.3C243.3,583.4,216.7,516.6,216.7,516.6z M373,534.7
		l-13.3-99.2l-198.4,26.6c-54.8,7.3-93.3,57.7-85.9,112.5L373,534.7z M345.7,387.7l5.6,91.5l5.7,91.7c0,47.4,47.1,94.6,94.6,94.6
		l2.6-38.2l2.9-48l5.5-91.4l80.9-4.9l9.2-0.6c47.4,0,77.2-47.1,77.2-94.6c-3.7-3.7-94.4-5.5-99.2-5.5c-2.4,0-90.8,0.5-93.1,1.4
		C435.5,384.5,347.5,385.9,345.7,387.7z"/>
	
		<linearGradient id="SVGID_00000060031102996192828230000016348360603448617612_" gradientUnits="userSpaceOnUse" x1="65.7106" y1="678.4574" x2="678.4" y2="678.4574" gradientTransform="matrix(1 0 0 1 0 -278)">
		<stop  offset="0" style="stop-color:#DA2EEF"/>
		<stop  offset="0.5" style="stop-color:#2B6AFF"/>
		<stop  offset="1" style="stop-color:#39D0D8"/>
	</linearGradient>
	<path style="fill:none;stroke:url(#SVGID_00000060031102996192828230000016348360603448617612_);stroke-miterlimit:10;" d="
		M447.6,118.2c-10.7-4.5-30,0.4-42.3,0.4l-4.2,24.4l-3.7,21.7l-7.9,46l11.6,87.8l56.5,11.6c3.2,3.2,29.8,4.8,34,4.8s30.8-1.6,34-4.8
		L514,277.5L502.4,245l11.6-32.6c6.4-31.2-3.6-64-26.3-86.7C479.6,117.6,458.3,122.7,447.6,118.2z M535.6,332.3L392.3,341l-1.4,23.9
		l-1.4,23.9l8.1,53c3.2,3.2,97.1,4.8,101.3,4.8c2.4,0,94.4-0.5,96.7-1.6c26.4-0.8,50.4-11.9,68-29.5c8.1-8.1,4.8-27.7,9.3-38.4
		c4.5-10.7,5-24.6,5-37l0,0L535.6,332.3z M292.7,84.4c53.5,3.9,95.1,49.5,94.2,104.1c-0.6,3.2-2.1,95.9-4.6,98.4l-11.6,101.3
		l-95.5,5.8l-95.5,5.8L78.5,388.2l0,0c0-49.5,52.1-101.6,101.6-101.6l69.5-5.5l27.8-2.2l7.6-97.3L292.7,84.4L292.7,84.4z
		 M219.4,523.5c3.2-3.2,29.8-4.8,34-4.8c4.2,0,30.8,1.6,34,4.8l56.5,11.6l11.6,87.8l-11.6,87.8c-12.4,0-35.8,9.1-46.5,4.6
		s-32,0.5-40.1-7.6c-22.6-22.6-32.7-55.5-26.3-86.7l11.6-32.5C242.7,588.6,219.4,523.5,219.4,523.5z M370.7,535l-11.6-101.3
		L156.5,457c-55.9,6.4-96.1,57-89.6,112.9L370.7,535z M351.1,391.8l4.9,94.5l5,94.7c0,49.5,47.7,97.2,97.2,97.2l2.3-40.3l2.5-49.6
		l4.8-94.5l83.6-4.3l9.7-0.5c49.5,0,82.1-47.7,82.1-97.2c-3.2-3.2-97.1-4.8-101.3-4.8c-2.1,0-93.9,0.4-95.9,1.2
		C444.1,389.1,352.6,390.3,351.1,391.8z"/>
	
		<linearGradient id="SVGID_00000093150806136706916460000001706632869113969307_" gradientUnits="userSpaceOnUse" x1="57.3139" y1="678.4448" x2="686.7" y2="678.4448" gradientTransform="matrix(1 0 0 1 0 -278)">
		<stop  offset="0" style="stop-color:#DA2EEF"/>
		<stop  offset="0.5" style="stop-color:#2B6AFF"/>
		<stop  offset="1" style="stop-color:#39D0D8"/>
	</linearGradient>
	<path style="fill:none;stroke:url(#SVGID_00000093150806136706916460000001706632869113969307_);stroke-miterlimit:10;" d="
		M445.7,108.1c-11.2-4.7-29.8-1-42.7-1l-3.6,24.6l-3.2,21.9l-6.8,46.5l10,89.3l56.7,10c2.8,2.8,29.7,4.1,33.3,4.1s30.6-1.4,33.3-4.1
		l-10-31.7l-10-31.8l10-31.8c5.5-31.3-4.9-63.6-27.4-86C476.9,109.7,456.8,112.8,445.7,108.1z M539.4,323.4l-147.6,7.5l-1.2,24.6
		l-1.2,24.6l7,53.7c2.8,2.8,99.7,4.1,103.4,4.1c2.1,0,97.5-0.4,99.4-1.3c27.2-0.7,51.9-12.1,70-30.1c8.4-8.4,6.8-27,11.5-38.2
		s5.5-25.2,5.5-38.1l0,0L539.4,323.4z M284.9,77.8c55,3.4,98.1,49.9,97.3,105.8c-0.5,2.8-1.8,98.8-3.9,100.9l-10,103.4l-98.4,5
		l-98.4,5l-103.4-10l0,0c0-51.6,52.1-103.7,103.7-103.7l71.4-4.7l28.6-1.9l6.5-99.9L284.9,77.8L284.9,77.8z M222.1,530.3
		c2.8-2.8,29.7-4.1,33.3-4.1c3.6,0,30.6,1.4,33.3,4.1l56.7,10l10,89.3l-10,89.3c-12.9,0-35.1,7.4-46.3,2.6s-31.2-1.6-39.7-10
		c-22.4-22.4-32.9-54.7-27.4-86l10-31.7C242.1,593.9,222.1,530.3,222.1,530.3z M368.4,535.2l-10-103.4l-206.7,19.9
		c-57.1,5.5-98.9,56.2-93.4,113.3L368.4,535.2z M356.5,396l4.2,97.6l4.3,97.7c0,51.6,48.3,99.9,99.9,99.9l2-42.4l2.2-51.1l4.1-97.5
		l86.3-3.7l10.2-0.5c51.6,0,86.9-48.3,86.9-99.9c-2.8-2.8-99.7-4.1-103.4-4.1c-1.8,0-97.1,0.4-98.8,1.1
		C452.8,393.6,357.8,394.6,356.5,396z"/>
	
		<linearGradient id="SVGID_00000007394004138594097260000000613846034987733942_" gradientUnits="userSpaceOnUse" x1="48.8794" y1="678.543" x2="695.0999" y2="678.543" gradientTransform="matrix(1 0 0 1 0 -278)">
		<stop  offset="0" style="stop-color:#DA2EEF"/>
		<stop  offset="0.5" style="stop-color:#2B6AFF"/>
		<stop  offset="1" style="stop-color:#39D0D8"/>
	</linearGradient>
	<path style="fill:none;stroke:url(#SVGID_00000007394004138594097260000000613846034987733942_);stroke-miterlimit:10;" d="
		M443.8,97.9c-11.6-4.9-29.7-2.3-43.1-2.3l-3,24.8l-2.7,22.1l-5.7,46.9l8.3,90.9l56.9,8.3c2.3,2.3,29.6,3.4,32.6,3.4
		s30.3-1.1,32.6-3.4l-8.3-30.9l-8.3-31l8.3-31c4.6-31.4-6.3-63.1-28.4-85.3C474.2,101.7,455.4,102.9,443.8,97.9z M543.3,314.5
		l-151.9,6.2l-1,25.3l-1,25.3l5.8,54.4c2.3,2.3,102.4,3.4,105.4,3.4c1.7,0,100.5-0.4,102.1-1.1c28-0.6,53.4-12.2,72-30.8
		c8.8-8.8,8.8-26.3,13.8-37.9s6.1-25.9,6.1-39.3l0,0L543.3,314.5z M277.2,71.2c56.5,2.8,101,50.2,100.4,107.5
		c-0.4,2.3-1.5,101.6-3.3,103.4L366,387.5l-101.3,4.2l-101.3,4.2L58,387.6l0,0c0-53.6,52-105.7,105.7-105.7l73.2-3.9l29.3-1.6
		l5.5-102.6L277.2,71.2L277.2,71.2z M224.9,537.1c2.3-2.3,29.6-3.4,32.6-3.4s30.3,1.1,32.6,3.4l56.9,8.3l8.3,90.9l-8.3,90.9
		c-13.4,0-34.5,5.6-46.1,0.7s-30.4-3.7-39.2-12.5c-22.2-22.2-33-53.9-28.4-85.3l8.3-30.9C241.5,599,224.9,537.1,224.9,537.1z
		 M366,535.3l-8.3-105.4l-210.9,16.6C88.6,451.1,45.2,502,49.7,560.3L366,535.3z M361.9,400l3.5,100.6l3.6,100.7
		c0,53.6,48.9,102.5,102.5,102.5l1.6-44.5l1.8-52.7l3.4-100.6l89-3.1l10.7-0.4c53.6,0,91.7-48.9,91.7-102.5
		c-2.3-2.3-102.4-3.4-105.4-3.4c-1.5,0-100.2,0.3-101.6,0.9C461.5,398,363.1,398.9,361.9,400z"/>
	
		<linearGradient id="SVGID_00000097481007045698406420000013661062118339731597_" gradientUnits="userSpaceOnUse" x1="40.4881" y1="678.4707" x2="703.7001" y2="678.4707" gradientTransform="matrix(1 0 0 1 0 -278)">
		<stop  offset="0" style="stop-color:#DA2EEF"/>
		<stop  offset="0.5" style="stop-color:#2B6AFF"/>
		<stop  offset="1" style="stop-color:#39D0D8"/>
	</linearGradient>
	<path style="fill:none;stroke:url(#SVGID_00000097481007045698406420000013661062118339731597_);stroke-miterlimit:10;" d="
		M441.9,87.7c-12.1-5.1-29.6-3.7-43.5-3.7l-2.4,25.1l-2.1,22.3l-4.5,47.4l6.6,92.4l57.1,6.6c1.8,1.8,29.5,2.8,31.9,2.8
		s30-0.9,31.9-2.8l-6.6-30.1l-6.6-30.2l6.6-30.2c3.7-31.5-7.6-62.7-29.5-84.6C471.5,93.6,453.9,92.8,441.9,87.7z M547.3,305.4
		l-156.3,5l-0.8,26l-0.8,26l4.7,55.1c1.8,1.8,105.1,2.8,107.5,2.8c1.4,0,103.6-0.3,104.9-0.9c28.8-0.5,54.9-12.4,74-31.4
		c9.1-9.1,10.9-25.6,16-37.7s6.7-26.5,6.7-40.5l0,0L547.3,305.4z M269.5,64.5c58,2.3,104,50.5,103.5,109.1
		c-0.3,1.8-1.2,104.5-2.6,105.9L363.7,387l-104.2,3.3l-104.2,3.3L47.9,387l0,0c0-55.7,52-107.7,107.7-107.7l75.1-3.1l30.1-1.2
		l4.4-105.2L269.5,64.5L269.5,64.5z M227.6,543.7c1.8-1.8,29.5-2.8,31.9-2.8s30,0.9,31.9,2.8l57.1,6.6l6.6,92.4l-6.6,92.4
		c-13.9,0-33.8,3.8-45.9-1.3s-29.6-5.8-38.7-15c-21.9-21.9-33.2-53.1-29.5-84.6l6.6-30.1C240.9,604.1,227.6,543.7,227.6,543.7z
		 M363.7,535.4l-6.6-107.5l-215,13.3C82.7,444.9,37.5,496,41.2,555.3L363.7,535.4z M367.4,404l2.8,103.6l2.9,103.7
		c0,55.7,49.5,105.2,105.2,105.2l1.3-46.6l1.4-54.3l2.8-103.6l91.7-2.4l11.3-0.3c55.7,0,96.5-49.5,96.5-105.2
		c-1.8-1.8-105.1-2.8-107.5-2.8c-1.2,0-103.3,0.2-104.5,0.7C470.2,402.4,368.3,403.1,367.4,404z"/>
	
		<linearGradient id="SVGID_00000110453816825582138090000002058819853615048373_" gradientUnits="userSpaceOnUse" x1="31.9888" y1="678.4982" x2="712" y2="678.4982" gradientTransform="matrix(1 0 0 1 0 -278)">
		<stop  offset="0" style="stop-color:#DA2EEF"/>
		<stop  offset="0.5" style="stop-color:#2B6AFF"/>
		<stop  offset="1" style="stop-color:#39D0D8"/>
	</linearGradient>
	<path style="fill:none;stroke:url(#SVGID_00000110453816825582138090000002058819853615048373_);stroke-miterlimit:10;" d="
		M440,77.3c-12.5-5.3-29.5-5-43.9-5l-1.8,25.3l-1.6,22.5l-3.4,47.8l5,93.9l57.3,5c1.4,1.4,29.3,2.1,31.1,2.1s29.8-0.7,31.1-2.1
		l-5-29.3l-5-29.4l5-29.4c2.8-31.6-9-62.2-30.6-83.9C468.8,85.3,452.5,82.6,440,77.3z M551.2,296.2L390.6,300l-0.6,26.8l-0.6,26.8
		l3.5,55.8c1.4,1.4,107.8,2.1,109.6,2.1c1,0,106.6-0.2,107.6-0.7c29.6-0.3,56.4-12.5,75.9-32c9.5-9.5,12.9-25,18.2-37.5
		s7.3-27.2,7.3-41.6l0,0L551.2,296.2z M261.8,57.6c59.5,1.7,106.9,50.8,106.5,110.8c-0.2,1.4-0.9,107.3-2,108.4l-5,109.6l-107.1,2.5
		l-107.1,2.5l-109.6-5l0,0c0-57.8,52-109.7,109.7-109.7l77-2.3l30.8-0.9l3.3-107.9L261.8,57.6L261.8,57.6z M230.4,550.2
		c1.4-1.4,29.3-2.1,31.1-2.1c1.8,0,29.8,0.7,31.1,2.1l57.3,5l5,93.9l-5,93.9c-14.4,0-33.2,2.1-45.7-3.2s-28.8-8-38.2-17.4
		c-21.7-21.7-33.4-52.3-30.6-83.9l5-29.3C240.4,609,230.4,550.2,230.4,550.2z M361.4,535.3l-5-109.6l-219.2,10
		c-60.5,2.8-107.3,54-104.6,114.6L361.4,535.3z M372.9,407.8l2.1,106.7l2.2,106.7C377.2,679,427.3,729,485,729l1-48.7l1.1-55.9
		l2.1-106.7l94.4-1.8l11.8-0.2c57.8,0,101.3-50.1,101.3-107.8c-1.4-1.4-107.8-2.1-109.6-2.1c-0.9,0-106.4,0.2-107.3,0.5
		C478.9,406.6,373.5,407.1,372.9,407.8z"/>
	
		<linearGradient id="SVGID_00000170243484396242804920000004877358473296601489_" gradientUnits="userSpaceOnUse" x1="23.646" y1="678.497" x2="720.2001" y2="678.497" gradientTransform="matrix(1 0 0 1 0 -278)">
		<stop  offset="0" style="stop-color:#DA2EEF"/>
		<stop  offset="0.5" style="stop-color:#2B6AFF"/>
		<stop  offset="1" style="stop-color:#39D0D8"/>
	</linearGradient>
	<path style="fill:none;stroke:url(#SVGID_00000170243484396242804920000004877358473296601489_);stroke-miterlimit:10;" d="
		M438.1,66.6c-13-5.5-29.3-6.4-44.3-6.4l-1.2,25.6l-1.1,22.7l-2.3,48.3l3.3,95.4l57.5,3.3c0.9,0.9,29.2,1.4,30.4,1.4
		s29.5-0.5,30.4-1.4l-3.3-28.6l-3.3-28.6l3.3-28.6c1.8-31.7-10.3-61.8-31.7-83.2C466.1,76.7,451.1,72.1,438.1,66.6z M555.1,286.7
		l-165,2.5l-0.4,27.5l-0.4,27.5l2.3,56.5c0.9,0.9,110.4,1.4,111.6,1.4c0.7,0,109.7-0.1,110.3-0.4c30.4-0.2,57.9-12.7,77.9-32.7
		c9.8-9.8,14.9-24.3,20.4-37.3s7.9-27.8,7.9-42.8l0,0L555.1,286.7z M254.1,50.5c61,1.1,109.9,51.2,109.6,112.5
		c-0.2,0.9-0.6,110.1-1.3,110.8l-3.3,111.6l-110,1.7l-110,1.7l-111.6-3.3l0,0c0-59.8,51.9-111.8,111.8-111.8l78.9-1.6l31.6-0.6
		L252,161L254.1,50.5L254.1,50.5z M233.2,556.4c0.9-0.9,29.2-1.4,30.4-1.4s29.5,0.5,30.4,1.4l57.5,3.3l3.3,95.4l-3.3,95.4
		c-15,0-32.5,0.3-45.5-5.2s-28-10.1-37.8-19.9c-21.4-21.4-33.6-51.5-31.7-83.2l3.3-28.6C239.9,613.6,233.2,556.4,233.2,556.4z
		 M359.1,534.9l-3.3-111.6l-223.3,6.6c-61.7,1.8-110.2,53.3-108.3,115L359.1,534.9z M378.4,411.3l1.4,109.7l1.4,109.8
		c0,59.8,50.7,110.5,110.5,110.5l0.7-50.9l0.7-57.5l1.4-109.7l97.1-1.2l12.3-0.2c59.8,0,106.2-50.7,106.2-110.5
		c-0.9-0.9-110.4-1.4-111.6-1.4c-0.6,0-109.6,0.1-110.1,0.4C487.7,410.5,378.8,410.8,378.4,411.3z"/>
	
		<linearGradient id="SVGID_00000121244593161529218030000015794224542211542455_" gradientUnits="userSpaceOnUse" x1="15.1881" y1="678.4977" x2="728.9" y2="678.4977" gradientTransform="matrix(1 0 0 1 0 -278)">
		<stop  offset="0" style="stop-color:#DA2EEF"/>
		<stop  offset="0.5" style="stop-color:#2B6AFF"/>
		<stop  offset="1" style="stop-color:#39D0D8"/>
	</linearGradient>
	<path style="fill:none;stroke:url(#SVGID_00000121244593161529218030000015794224542211542455_);stroke-miterlimit:10;" d="
		M436.3,55.7C422.9,50,407.1,48,391.6,48L391,73.8l-0.5,23l-1.1,48.8l1.7,96.9l57.7,1.7c0.5,0.5,29.1,0.7,29.7,0.7
		s29.2-0.2,29.7-0.7l-1.7-27.8l-1.7-27.8l1.7-27.8c0.9-31.9-11.6-61.4-32.8-82.6C463.4,67.9,449.7,61.4,436.3,55.7z M559.1,277
		l-169.3,1.2l-0.2,28.2l-0.2,28.2l1.2,57.2c0.5,0.5,113.1,0.7,113.7,0.7c0.3,0,112.7-0.1,113.1-0.2c31.2-0.1,59.4-12.8,79.9-33.3
		c10.1-10.1,16.9-23.6,22.6-37c5.7-13.4,8.5-28.4,8.5-43.9l0,0L559.1,277z M246.5,43.1c62.5,0.6,112.8,51.5,112.7,114.1
		c-0.1,0.5-0.3,113-0.7,113.3l-1.7,113.7L244,385.1l-112.9,0.8l-113.7-1.7l0,0c0-61.9,51.9-113.8,113.8-113.8l80.8-0.8l32.3-0.3
		l1.1-113.2L246.5,43.1L246.5,43.1z M236,562.4c0.5-0.5,29.1-0.7,29.7-0.7s29.2,0.2,29.7,0.7l57.7,1.7l1.7,96.9l-1.7,96.9
		c-15.5,0-31.9-1.5-45.3-7.1c-13.4-5.7-27.1-12.2-37.3-22.4c-21.2-21.2-33.7-50.7-32.8-82.6l1.7-27.8
		C239.3,618.1,236,562.4,236,562.4z M356.9,534.3l-1.7-113.7l-227.4,3.3c-62.8,0.9-113,52.6-112.1,115.4L356.9,534.3z M383.9,414.6
		l0.7,112.8l0.7,112.8c0,61.9,51.3,113.1,113.1,113.1l0.3-53l0.4-59.1l0.7-112.8l99.8-0.6l12.8-0.1c61.9,0,111-51.3,111-113.1
		c-0.5-0.5-113.1-0.7-113.7-0.7c-0.3,0-112.7,0.1-113,0.2C496.4,414.2,384.1,414.3,383.9,414.6z"/>
	<g>
		
			<linearGradient id="SVGID_00000078761161886730617450000006237008382458646701_" gradientUnits="userSpaceOnUse" x1="6.7" y1="678.5" x2="737.3" y2="678.5" gradientTransform="matrix(1 0 0 1 0 -278)">
			<stop  offset="0" style="stop-color:#DA2EEF"/>
			<stop  offset="0.5" style="stop-color:#2B6AFF"/>
			<stop  offset="1" style="stop-color:#39D0D8"/>
		</linearGradient>
		<path style="fill:none;stroke:url(#SVGID_00000078761161886730617450000006237008382458646701_);stroke-miterlimit:10;" d="
			M389.4,35.7V85v49.2v98.4h57.9h28.9h28.9v-81.1c0-32-13-60.9-33.9-81.9c-10.5-10.5-23-19-36.8-24.8S405.4,35.7,389.4,35.7z
			 M389.4,383.1h115.8H621c32,0,60.9-13,81.9-33.9c10.5-10.5,19-23,24.8-36.8c5.9-13.9,9.1-29.1,9.1-45.1l0,0H563.1H389.4v28.9v28.9
			V383.1z M238.8,383.1H123H7.2l0,0c0-64,51.8-115.8,115.8-115.8h115.8V151.5V35.7l0,0c64,0,115.8,51.8,115.8,115.8v115.8v115.8
			L238.8,383.1L238.8,383.1z M354.6,765.3v-98.4v-98.4h-57.9h-28.9h-28.9v81.1c0,32,13,60.9,33.9,81.9c10.5,10.5,23,19,36.8,24.8
			C323.4,762,338.6,765.3,354.6,765.3z M354.6,533.7V417.9H123c-64,0-115.8,51.8-115.8,115.8H354.6z M505.2,533.7H621
			c64,0,115.8-51.8,115.8-115.8H621H505.2H389.4v115.8v115.8c0,64,51.8,115.8,115.8,115.8V649.5V533.7z"/>
	</g>
</g>
</svg>
